REM DIRINDEX 1\6,1\2\7,1\2\8,1\2\9,1\3\10,1\3\11,1\4\12,1\4\13,1\4\14,1\5\15,1\5\16,1\5\17
REM DIRNAME cjc040,folder01,folder02,folder03,folder04,folder05,folder06,folder07,folder08,folder09,folder10,folder11,folder12,folder13,folder14,folder15,folder16
TITLE ""
FILE "P2Q_t_0633-0649.mp3" MP3
  TRACK 01 AUDIO
    TITLE "6:cjc040_2918"
    INDEX 01 00:00:00
  TRACK 02 AUDIO
    TITLE "0:"
    INDEX 01 00:07:33
  TRACK 03 AUDIO
    TITLE "10:cjc040_2919"
    INDEX 01 00:08:46
  TRACK 04 AUDIO
    TITLE "0:"
    INDEX 01 00:09:61
  TRACK 05 AUDIO
    TITLE "11:cjc040_2920"
    INDEX 01 00:10:43
  TRACK 06 AUDIO
    TITLE "0:"
    INDEX 01 00:11:62
  TRACK 07 AUDIO
    TITLE "10:cjc040_2921"
    INDEX 01 00:12:42
  TRACK 08 AUDIO
    TITLE "0:"
    INDEX 01 00:13:61
  TRACK 09 AUDIO
    TITLE "11:cjc040_2922"
    INDEX 01 00:14:37
  TRACK 10 AUDIO
    TITLE "0:"
    INDEX 01 00:17:21
  TRACK 11 AUDIO
    TITLE "10:cjc040_2923"
    INDEX 01 00:17:69
  TRACK 12 AUDIO
    TITLE "0:"
    INDEX 01 00:18:74
  TRACK 13 AUDIO
    TITLE "11:cjc040_2924"
    INDEX 01 00:19:58
  TRACK 14 AUDIO
    TITLE "0:"
    INDEX 01 00:21:02
  TRACK 15 AUDIO
    TITLE "10:cjc040_2925"
    INDEX 01 00:21:58
  TRACK 16 AUDIO
    TITLE "0:"
    INDEX 01 00:22:74
  TRACK 17 AUDIO
    TITLE "11:cjc040_2926"
    INDEX 01 00:23:53
  TRACK 18 AUDIO
    TITLE "0:"
    INDEX 01 00:26:38
  TRACK 19 AUDIO
    TITLE "10:cjc040_2927"
    INDEX 01 00:27:14
  TRACK 20 AUDIO
    TITLE "0:"
    INDEX 01 00:28:31
  TRACK 21 AUDIO
    TITLE "11:cjc040_2928"
    INDEX 01 00:29:09
  TRACK 22 AUDIO
    TITLE "0:"
    INDEX 01 00:31:53
  TRACK 23 AUDIO
    TITLE "10:cjc040_2929"
    INDEX 01 00:32:25
  TRACK 24 AUDIO
    TITLE "0:"
    INDEX 01 00:33:34
  TRACK 25 AUDIO
    TITLE "11:cjc040_2930"
    INDEX 01 00:34:12
  TRACK 26 AUDIO
    TITLE "0:"
    INDEX 01 00:38:00
  TRACK 27 AUDIO
    TITLE "10:cjc040_2931"
    INDEX 01 00:38:55
  TRACK 28 AUDIO
    TITLE "0:"
    INDEX 01 00:39:58
  TRACK 29 AUDIO
    TITLE "11:cjc040_2932"
    INDEX 01 00:40:34
  TRACK 30 AUDIO
    TITLE "0:"
    INDEX 01 00:43:68
  TRACK 31 AUDIO
    TITLE "10:cjc040_2933"
    INDEX 01 00:44:44
  TRACK 32 AUDIO
    TITLE "0:"
    INDEX 01 00:46:00
  TRACK 33 AUDIO
    TITLE "11:cjc040_2934"
    INDEX 01 00:46:53
  TRACK 34 AUDIO
    TITLE "0:"
    INDEX 01 00:48:18
  TRACK 35 AUDIO
    TITLE "10:cjc040_2935"
    INDEX 01 00:48:73
  TRACK 36 AUDIO
    TITLE "0:"
    INDEX 01 00:50:23
  TRACK 37 AUDIO
    TITLE "11:cjc040_2936"
    INDEX 01 00:51:07
  TRACK 38 AUDIO
    TITLE "0:"
    INDEX 01 00:53:37
  TRACK 39 AUDIO
    TITLE "10:cjc040_2937"
    INDEX 01 00:54:21
  TRACK 40 AUDIO
    TITLE "0:"
    INDEX 01 00:55:32
  TRACK 41 AUDIO
    TITLE "11:cjc040_2938"
    INDEX 01 00:56:12
  TRACK 42 AUDIO
    TITLE "0:"
    INDEX 01 00:57:45
  TRACK 43 AUDIO
    TITLE "10:cjc040_2939"
    INDEX 01 00:58:20
  TRACK 44 AUDIO
    TITLE "0:"
    INDEX 01 00:59:45
  TRACK 45 AUDIO
    TITLE "11:cjc040_2940"
    INDEX 01 01:00:19
  TRACK 46 AUDIO
    TITLE "0:"
    INDEX 01 01:03:20
  TRACK 47 AUDIO
    TITLE "10:cjc040_2941"
    INDEX 01 01:04:00
  TRACK 48 AUDIO
    TITLE "0:"
    INDEX 01 01:05:07
  TRACK 49 AUDIO
    TITLE "11:cjc040_2942"
    INDEX 01 01:05:64
  TRACK 50 AUDIO
    TITLE "0:"
    INDEX 01 01:08:36
  TRACK 51 AUDIO
    TITLE "10:cjc040_2943"
    INDEX 01 01:09:18
  TRACK 52 AUDIO
    TITLE "0:"
    INDEX 01 01:10:26
  TRACK 53 AUDIO
    TITLE "11:cjc040_2944"
    INDEX 01 01:11:07
  TRACK 54 AUDIO
    TITLE "0:"
    INDEX 01 01:13:55
  TRACK 55 AUDIO
    TITLE "10:cjc040_2945"
    INDEX 01 01:14:27
  TRACK 56 AUDIO
    TITLE "0:"
    INDEX 01 01:15:58
  TRACK 57 AUDIO
    TITLE "11:cjc040_2946"
    INDEX 01 01:16:30
  TRACK 58 AUDIO
    TITLE "0:"
    INDEX 01 01:17:47
  TRACK 59 AUDIO
    TITLE "10:cjc040_2947"
    INDEX 01 01:18:29
  TRACK 60 AUDIO
    TITLE "0:"
    INDEX 01 01:19:56
  TRACK 61 AUDIO
    TITLE "11:cjc040_2948"
    INDEX 01 01:20:32
  TRACK 62 AUDIO
    TITLE "0:"
    INDEX 01 01:23:18
  TRACK 63 AUDIO
    TITLE "10:cjc040_2949"
    INDEX 01 01:23:63
  TRACK 64 AUDIO
    TITLE "0:"
    INDEX 01 01:24:73
  TRACK 65 AUDIO
    TITLE "11:cjc040_2950"
    INDEX 01 01:25:60
  TRACK 66 AUDIO
    TITLE "0:"
    INDEX 01 01:27:06
  TRACK 67 AUDIO
    TITLE "10:cjc040_2951"
    INDEX 01 01:27:61
  TRACK 68 AUDIO
    TITLE "0:"
    INDEX 01 01:29:05
  TRACK 69 AUDIO
    TITLE "11:cjc040_2952"
    INDEX 01 01:29:56
  TRACK 70 AUDIO
    TITLE "0:"
    INDEX 01 01:32:21
